<svg id="visual" viewBox="0 0 900 600" width="900" height="600" xmlns="http://www.w3.org/2000/svg" xmlns:xlink="http://www.w3.org/1999/xlink" version="1.1"><rect x="0" y="0" width="900" height="600" fill="#ffffff"></rect><path d="M0 122L15 121C30 120 60 118 90 117.3C120 116.7 150 117.3 180 112.5C210 107.7 240 97.3 270 93.5C300 89.7 330 92.3 360 96.8C390 101.3 420 107.7 450 104C480 100.3 510 86.7 540 89.2C570 91.7 600 110.3 630 115.3C660 120.3 690 111.7 720 106.7C750 101.7 780 100.3 810 102.3C840 104.3 870 109.7 885 112.3L900 115L900 0L885 0C870 0 840 0 810 0C780 0 750 0 720 0C690 0 660 0 630 0C600 0 570 0 540 0C510 0 480 0 450 0C420 0 390 0 360 0C330 0 300 0 270 0C240 0 210 0 180 0C150 0 120 0 90 0C60 0 30 0 15 0L0 0Z" fill="#9cd8ff"></path><path d="M0 83L15 87.2C30 91.3 60 99.7 90 96.8C120 94 150 80 180 75.2C210 70.3 240 74.7 270 77.8C300 81 330 83 360 83.7C390 84.3 420 83.7 450 83.8C480 84 510 85 540 88C570 91 600 96 630 96.7C660 97.3 690 93.7 720 92.2C750 90.7 780 91.3 810 87.3C840 83.3 870 74.7 885 70.3L900 66L900 0L885 0C870 0 840 0 810 0C780 0 750 0 720 0C690 0 660 0 630 0C600 0 570 0 540 0C510 0 480 0 450 0C420 0 390 0 360 0C330 0 300 0 270 0C240 0 210 0 180 0C150 0 120 0 90 0C60 0 30 0 15 0L0 0Z" fill="#77bdf3"></path><path d="M0 62L15 60.3C30 58.7 60 55.3 90 52.7C120 50 150 48 180 48.2C210 48.3 240 50.7 270 51.2C300 51.7 330 50.3 360 54.5C390 58.7 420 68.3 450 70.5C480 72.7 510 67.3 540 63.7C570 60 600 58 630 55.7C660 53.3 690 50.7 720 51.7C750 52.7 780 57.3 810 58.8C840 60.3 870 58.7 885 57.8L900 57L900 0L885 0C870 0 840 0 810 0C780 0 750 0 720 0C690 0 660 0 630 0C600 0 570 0 540 0C510 0 480 0 450 0C420 0 390 0 360 0C330 0 300 0 270 0C240 0 210 0 180 0C150 0 120 0 90 0C60 0 30 0 15 0L0 0Z" fill="#56a1e6"></path><path d="M0 54L15 50C30 46 60 38 90 38C120 38 150 46 180 46.8C210 47.7 240 41.3 270 40.2C300 39 330 43 360 45C390 47 420 47 450 47.2C480 47.3 510 47.7 540 47.3C570 47 600 46 630 47.3C660 48.7 690 52.3 720 53.3C750 54.3 780 52.7 810 49.7C840 46.7 870 42.3 885 40.2L900 38L900 0L885 0C870 0 840 0 810 0C780 0 750 0 720 0C690 0 660 0 630 0C600 0 570 0 540 0C510 0 480 0 450 0C420 0 390 0 360 0C330 0 300 0 270 0C240 0 210 0 180 0C150 0 120 0 90 0C60 0 30 0 15 0L0 0Z" fill="#3985d8"></path><path d="M0 36L15 36.5C30 37 60 38 90 35.8C120 33.7 150 28.3 180 27.2C210 26 240 29 270 30.2C300 31.3 330 30.7 360 32C390 33.3 420 36.7 450 35.8C480 35 510 30 540 30C570 30 600 35 630 37.5C660 40 690 40 720 37C750 34 780 28 810 26.8C840 25.7 870 29.3 885 31.2L900 33L900 0L885 0C870 0 840 0 810 0C780 0 750 0 720 0C690 0 660 0 630 0C600 0 570 0 540 0C510 0 480 0 450 0C420 0 390 0 360 0C330 0 300 0 270 0C240 0 210 0 180 0C150 0 120 0 90 0C60 0 30 0 15 0L0 0Z" fill="#2469c7"></path></svg>