<svg id="visual" viewBox="0 0 900 600" width="900" height="600" xmlns="http://www.w3.org/2000/svg" xmlns:xlink="http://www.w3.org/1999/xlink" version="1.1"><rect x="0" y="0" width="900" height="600" fill="#ffffff"></rect><path d="M0 90L8.3 94.8C16.7 99.7 33.3 109.3 50 107.8C66.7 106.3 83.3 93.7 100 84.3C116.7 75 133.3 69 150 64.5C166.7 60 183.3 57 200 63.7C216.7 70.3 233.3 86.7 250 95.5C266.7 104.3 283.3 105.7 300 101.7C316.7 97.7 333.3 88.3 350 90.2C366.7 92 383.3 105 400 110.7C416.7 116.3 433.3 114.7 450 108.5C466.7 102.3 483.3 91.7 500 82C516.7 72.3 533.3 63.7 550 70.3C566.7 77 583.3 99 600 102.2C616.7 105.3 633.3 89.7 650 90.3C666.7 91 683.3 108 700 109.3C716.7 110.7 733.3 96.3 750 88.2C766.7 80 783.3 78 800 74.8C816.7 71.7 833.3 67.3 850 65.3C866.7 63.3 883.3 63.7 891.7 63.8L900 64L900 0L891.7 0C883.3 0 866.7 0 850 0C833.3 0 816.7 0 800 0C783.3 0 766.7 0 750 0C733.3 0 716.7 0 700 0C683.3 0 666.7 0 650 0C633.3 0 616.7 0 600 0C583.3 0 566.7 0 550 0C533.3 0 516.7 0 500 0C483.3 0 466.7 0 450 0C433.3 0 416.7 0 400 0C383.3 0 366.7 0 350 0C333.3 0 316.7 0 300 0C283.3 0 266.7 0 250 0C233.3 0 216.7 0 200 0C183.3 0 166.7 0 150 0C133.3 0 116.7 0 100 0C83.3 0 66.7 0 50 0C33.3 0 16.7 0 8.3 0L0 0Z" fill="#7db1ff" stroke-linecap="round" stroke-linejoin="miter"></path></svg>